<?xml version="1.0" encoding="UTF-8" standalone="no"?>
<svg
   xmlns:dc="http://purl.org/dc/elements/1.1/"
   xmlns:cc="http://creativecommons.org/ns#"
   xmlns:rdf="http://www.w3.org/1999/02/22-rdf-syntax-ns#"
   xmlns:svg="http://www.w3.org/2000/svg"
   xmlns="http://www.w3.org/2000/svg"
   xmlns:sodipodi="http://sodipodi.sourceforge.net/DTD/sodipodi-0.dtd"
   xmlns:inkscape="http://www.inkscape.org/namespaces/inkscape"
   version="1.1"
   id="Calque_1"
   x="0px"
   y="0px"
   width="78px"
   height="79px"
   viewBox="0 0 78 79"
   enable-background="new 0 0 78 79"
   xml:space="preserve"
   inkscape:version="0.48.2 r9819"
   sodipodi:docname="image.svg"><metadata
   id="metadata9"><rdf:RDF><cc:Work
       rdf:about=""><dc:format>image/svg+xml</dc:format><dc:type
         rdf:resource="http://purl.org/dc/dcmitype/StillImage" /></cc:Work></rdf:RDF></metadata><defs
   id="defs7" /><sodipodi:namedview
   pagecolor="#ffffff"
   bordercolor="#666666"
   borderopacity="1"
   objecttolerance="10"
   gridtolerance="10"
   guidetolerance="10"
   inkscape:pageopacity="0"
   inkscape:pageshadow="2"
   inkscape:window-width="1680"
   inkscape:window-height="1028"
   id="namedview5"
   showgrid="false"
   inkscape:zoom="2.9873418"
   inkscape:cx="-18.576271"
   inkscape:cy="39.667373"
   inkscape:window-x="1672"
   inkscape:window-y="-8"
   inkscape:window-maximized="1"
   inkscape:current-layer="Calque_1" />
<path
   d="m 79.487627,79.985085 c 0.0314,-0.164014 -1.148453,-8.714913 -1.160416,-8.887792 0,0 -2.198209,-5.514421 -5.673473,-6.074433 -3.478255,-0.564445 -7.94346,-1.761305 -9.81119,-3.156164 -1.093124,-0.82007 -4.650634,-2.243004 -6.297047,-2.832568 -0.770121,-0.274834 -2.08456,-2.522271 -2.537661,-3.537385 -0.457586,-1.013637 -3.593399,-3.06603 -4.393427,-3.179805 l -0.125612,-4.22595 9.076959,-2.78824 c 0,0 2.34027,-1.071264 2.566072,-1.071264 0.228794,0 -1.08415,-1.700723 -1.253129,-2.155824 -0.171967,-0.452148 -1.027325,-3.535909 -1.027325,-3.535909 0,0 3.06553,3.702877 4.61923,4.394397 0,0 -3.052071,-5.660704 -3.959768,-8.81539 -0.913677,-3.156164 -1.513324,-8.085453 -1.513324,-8.534645 0,-0.453624 -1.881189,-13.692962 -2.908516,-15.8886819 -1.027326,-2.2001534 -2.41803,-5.1834375 -4.801666,-6.6492213 -2.385132,-1.4657838 -5.91722,-3.550684 -10.994036,-3.8299513 -0.07627,-0.00296 -0.152529,-0.00296 -0.225802,-0.010343 -0.07627,0.00591 -0.152529,0.00591 -0.230289,0.010343 -5.07233,0.2792673 -8.605915,2.3656451 -10.98955,3.8299513 -2.380646,1.4643062 -3.77434,4.4490679 -4.801667,6.6492213 -1.025831,2.1957199 -2.908514,15.4350579 -2.908514,15.8886819 0,0.449192 -0.532356,5.577959 -1.444538,8.731167 -0.912182,3.156163 -4.028555,8.618868 -4.028555,8.618868 1.555196,-0.69152 4.617735,-4.394397 4.617735,-4.394397 0,0 -1.103591,3.383715 -1.277055,3.835862 -0.173464,0.452147 -1.230699,1.855871 -1.001905,1.855871 0.225802,0 2.566073,1.071264 2.566073,1.071264 l 9.079949,2.78824 -0.128602,4.22595 c -0.797038,0.113775 -3.93285,2.167645 -4.390437,3.179805 -0.457587,1.015114 -1.77053,3.262551 -2.537661,3.537385 -1.6509,0.589564 -5.205419,2.012498 -6.298541,2.832568 -1.870721,1.393381 -6.326955,2.591719 -9.806705,3.156164 -3.4782548,0.560012 -5.6749685,5.690256 -5.6749685,5.690256 -0.013459,0.172879 -1.1918182,9.107955 -1.1619106,9.271969 H 79.487627 z"
   id="path3"
   inkscape:connector-curvature="0"
   style="fill:#555569;fill-opacity:1" />
</svg>