<?xml version="1.0" encoding="UTF-8" standalone="no"?>
<svg
   xmlns:dc="http://purl.org/dc/elements/1.1/"
   xmlns:cc="http://creativecommons.org/ns#"
   xmlns:rdf="http://www.w3.org/1999/02/22-rdf-syntax-ns#"
   xmlns:svg="http://www.w3.org/2000/svg"
   xmlns="http://www.w3.org/2000/svg"
   xmlns:sodipodi="http://sodipodi.sourceforge.net/DTD/sodipodi-0.dtd"
   xmlns:inkscape="http://www.inkscape.org/namespaces/inkscape"
   version="1.0"
   id="Capa_1"
   x="0px"
   y="0px"
   width="100"
   height="21"
   viewBox="0 0 100 21"
   enable-background="new 0 0 100 100"
   xml:space="preserve"
   inkscape:version="0.48.2 r9819"
   sodipodi:docname="regle.svg"><metadata
   id="metadata11"><rdf:RDF><cc:Work
       rdf:about=""><dc:format>image/svg+xml</dc:format><dc:type
         rdf:resource="http://purl.org/dc/dcmitype/StillImage" /><dc:title /></cc:Work></rdf:RDF></metadata><defs
   id="defs9" /><sodipodi:namedview
   pagecolor="#ffffff"
   bordercolor="#666666"
   borderopacity="1"
   objecttolerance="10"
   gridtolerance="10"
   guidetolerance="10"
   inkscape:pageopacity="0"
   inkscape:pageshadow="2"
   inkscape:window-width="1680"
   inkscape:window-height="988"
   id="namedview7"
   showgrid="false"
   inkscape:zoom="13.350176"
   inkscape:cx="12.078201"
   inkscape:cy="5.5088306"
   inkscape:window-x="-8"
   inkscape:window-y="-8"
   inkscape:window-maximized="1"
   inkscape:current-layer="g2985" />

<g
   id="g2985"><g
     style="fill:#555555;fill-opacity:1"
     transform="matrix(1.0751769,0,0,0.61717506,-0.70758467,0.20061508)"
     id="g3">
	<path
   style="fill:#555555;fill-opacity:1"
   inkscape:connector-curvature="0"
   id="path5"
   d="m 7.9576271,0.45762712 c -3.85,0 -6.99999998,3.14999998 -6.99999998,6.99999998 V 26.109627 c 0,3.85 3.14999998,7 6.99999998,7 H 86.958627 c 3.85,0 7,-3.15 7,-7 V 7.4576271 c 0,-3.85 -3.15,-6.99999998 -7,-6.99999998 H 7.9576271 z m -1.169,5.00499998 c 0,-0.922 0.118,-1.939 0.261,-2.26 0,0 0,0 0.322,0 0.322,0 0.322,0 0.322,0 0.144,0.321 0.261,1.337 0.261,2.26 0,0.922 -0.117,1.938 -0.261,2.259 0,0 0,0 -0.322,0 -0.322,0 -0.322,0 -0.322,0 -0.144,-0.321 -0.261,-1.337 -0.261,-2.259 z m -2.655,5.6119999 c -0.144,-0.321 -0.261,-2.0919999 -0.261,-3.9359999 0,-1.844 0.117,-3.615 0.261,-3.936 0,0 0,0 0.322,0 0.322,0 0.322,0 0.322,0 0.144,0.321 0.261,2.092 0.261,3.936 0,1.844 -0.117,3.6149999 -0.261,3.9359999 0,0 0,0 -0.322,0 -0.322,0 -0.322,0 -0.322,0 z m 3.238,17.662 c -1.449,0 -2.624,-1.175 -2.624,-2.624 0,-1.449 1.175,-2.624 2.624,-2.624 1.449,0 2.624,1.175 2.624,2.624 0,1.449 -1.175,2.624 -2.624,2.624 z M 11.161627,7.1386271 c 0,1.844 -0.118,3.6149999 -0.261,3.9359999 0,0 0,0 -0.322,0 -0.322,0 -0.322,0 -0.322,0 -0.144,-0.321 -0.2609999,-2.0919999 -0.2609999,-3.9359999 0,-1.844 0.1169999,-3.615 0.2609999,-3.936 0,0 0,0 0.322,0 0.322,0 0.322,0 0.322,0 0.143,0.321 0.261,2.092 0.261,3.936 z m 2.915,-1.676 c 0,0.922 -0.117,1.938 -0.261,2.259 0,0 0,0 -0.322,0 -0.322,0 -0.322,0 -0.322,0 -0.144,-0.321 -0.261,-1.337 -0.261,-2.259 0,-0.922 0.117,-1.939 0.261,-2.26 0,0 0,0 0.322,0 0.322,0 0.322,0 0.322,0 0.144,0.321 0.261,1.338 0.261,2.26 z m 3.207,1.676 c 0,1.844 -0.117,3.6149999 -0.261,3.9359999 0,0 0,0 -0.322,0 -0.322,0 -0.322,0 -0.322,0 -0.144,-0.321 -0.261,-2.0919999 -0.261,-3.9359999 0,-1.844 0.117,-3.615 0.261,-3.936 0,0 0,0 0.322,0 0.322,0 0.322,0 0.322,0 0.144,0.321 0.261,2.092 0.261,3.936 z m 3.013,-1.676 c 0,0.922 -0.118,1.938 -0.261,2.259 0,0 0,0 -0.322,0 -0.322,0 -0.322,0 -0.322,0 -0.144,-0.321 -0.261,-1.337 -0.261,-2.259 0,-0.922 0.118,-1.939 0.261,-2.26 0,0 0,0 0.322,0 0.322,0 0.322,0 0.322,0 0.143,0.321 0.261,1.338 0.261,2.26 z m 2.624,1.676 c 0,1.844 -0.118,3.6149999 -0.261,3.9359999 0,0 0,0 -0.322,0 -0.322,0 -0.322,0 -0.322,0 -0.144,-0.321 -0.261,-2.0919999 -0.261,-3.9359999 0,-1.844 0.118,-3.615 0.261,-3.936 0,0 0,0 0.322,0 0.322,0 0.322,0 0.322,0 0.143,0.321 0.261,2.092 0.261,3.936 z m 3.013,-1.676 c 0,0.922 -0.118,1.938 -0.261,2.259 0,0 0,0 -0.322,0 -0.322,0 -0.322,0 -0.322,0 -0.144,-0.321 -0.261,-1.337 -0.261,-2.259 0,-0.922 0.117,-1.939 0.261,-2.26 0,0 0,0 0.322,0 0.322,0 0.322,0 0.322,0 0.143,0.321 0.261,1.338 0.261,2.26 z m 3.207,1.676 c 0,1.844 -0.118,3.6149999 -0.262,3.9359999 0,0 0,0 -0.321,0 -0.322,0 -0.322,0 -0.322,0 -0.144,-0.321 -0.261,-2.0919999 -0.261,-3.9359999 0,-1.844 0.118,-3.615 0.261,-3.936 0,0 0,0 0.322,0 0.321,0 0.321,0 0.321,0 0.144,0.321 0.262,2.092 0.262,3.936 z m 2.526,-1.676 c 0,0.922 -0.118,1.938 -0.261,2.259 0,0 0,0 -0.322,0 -0.322,0 -0.322,0 -0.322,0 -0.144,-0.321 -0.261,-1.337 -0.261,-2.259 0,-0.922 0.118,-1.939 0.261,-2.26 0,0 0,0 0.322,0 0.322,0 0.322,0 0.322,0 0.143,0.321 0.261,1.338 0.261,2.26 z m 3.207,1.676 c 0,1.844 -0.118,3.6149999 -0.261,3.9359999 0,0 0,0 -0.322,0 -0.322,0 -0.322,0 -0.322,0 -0.144,-0.321 -0.262,-2.0919999 -0.262,-3.9359999 0,-1.844 0.118,-3.615 0.262,-3.936 0,0 0,0 0.322,0 0.322,0 0.322,0 0.322,0 0.143,0.321 0.261,2.092 0.261,3.936 z m 2.915,-1.676 c 0,0.922 -0.118,1.938 -0.261,2.259 0,0 0,0 -0.322,0 -0.322,0 -0.322,0 -0.322,0 -0.144,-0.321 -0.261,-1.337 -0.261,-2.259 0,-0.922 0.118,-1.939 0.261,-2.26 0,0 0,0 0.322,0 0.322,0 0.322,0 0.322,0 0.143,0.321 0.261,1.338 0.261,2.26 z m 3.207,1.676 c 0,1.844 -0.118,3.6149999 -0.261,3.9359999 0,0 0,0 -0.322,0 -0.322,0 -0.322,0 -0.322,0 -0.144,-0.321 -0.261,-2.0919999 -0.261,-3.9359999 0,-1.844 0.118,-3.615 0.261,-3.936 0,0 0,0 0.322,0 0.322,0 0.322,0 0.322,0 0.143,0.321 0.261,2.092 0.261,3.936 z m 2.624,-1.676 c 0,0.922 -0.118,1.938 -0.261,2.259 0,0 0,0 -0.322,0 -0.322,0 -0.322,0 -0.322,0 -0.144,-0.321 -0.261,-1.337 -0.261,-2.259 0,-0.922 0.118,-1.939 0.261,-2.26 0,0 0,0 0.322,0 0.322,0 0.322,0 0.322,0 0.143,0.321 0.261,1.338 0.261,2.26 z m 3.207,1.676 c 0,1.844 -0.118,3.6149999 -0.262,3.9359999 0,0 0,0 -0.321,0 -0.322,0 -0.322,0 -0.322,0 -0.144,-0.321 -0.262,-2.0919999 -0.262,-3.9359999 0,-1.844 0.118,-3.615 0.262,-3.936 0,0 0,0 0.322,0 0.321,0 0.321,0 0.321,0 0.144,0.321 0.262,2.092 0.262,3.936 z m 2.915,-1.676 c 0,0.922 -0.117,1.938 -0.261,2.259 0,0 0,0 -0.322,0 -0.322,0 -0.322,0 -0.322,0 -0.143,-0.321 -0.261,-1.337 -0.261,-2.259 0,-0.922 0.118,-1.939 0.261,-2.26 0,0 0,0 0.322,0 0.322,0 0.322,0 0.322,0 0.144,0.321 0.261,1.338 0.261,2.26 z m 3.207,1.676 c 0,1.844 -0.118,3.6149999 -0.262,3.9359999 0,0 0,0 -0.321,0 -0.321,0 -0.321,0 -0.321,0 -0.144,-0.321 -0.262,-2.0919999 -0.262,-3.9359999 0,-1.844 0.118,-3.615 0.262,-3.936 0,0 0,0 0.321,0 0.321,0 0.321,0 0.321,0 0.144,0.321 0.262,2.092 0.262,3.936 z m 2.624,-1.676 c 0,0.922 -0.118,1.938 -0.262,2.259 0,0 0,0 -0.321,0 -0.322,0 -0.322,0 -0.322,0 -0.144,-0.321 -0.261,-1.337 -0.261,-2.259 0,-0.922 0.117,-1.939 0.261,-2.26 0,0 0,0 0.322,0 0.321,0 0.321,0 0.321,0 0.144,0.321 0.262,1.338 0.262,2.26 z m 3.207,1.676 c 0,1.844 -0.118,3.6149999 -0.262,3.9359999 0,0 0,0 -0.321,0 -0.322,0 -0.322,0 -0.322,0 -0.144,-0.321 -0.261,-2.0919999 -0.261,-3.9359999 0,-1.844 0.117,-3.615 0.261,-3.936 0,0 0,0 0.322,0 0.321,0 0.321,0 0.321,0 0.144,0.321 0.262,2.092 0.262,3.936 z m 2.915,-1.676 c 0,0.922 -0.117,1.938 -0.261,2.259 0,0 0,0 -0.322,0 -0.321,0 -0.321,0 -0.321,0 -0.144,-0.321 -0.262,-1.337 -0.262,-2.259 0,-0.922 0.118,-1.939 0.262,-2.26 0,0 0,0 0.321,0 0.322,0 0.322,0 0.322,0 0.144,0.321 0.261,1.338 0.261,2.26 z m 3.207,1.676 c 0,1.844 -0.118,3.6149999 -0.262,3.9359999 0,0 0,0 -0.321,0 -0.321,0 -0.321,0 -0.321,0 -0.144,-0.321 -0.262,-2.0919999 -0.262,-3.9359999 0,-1.844 0.118,-3.615 0.262,-3.936 0,0 0,0 0.321,0 0.321,0 0.321,0 0.321,0 0.144,0.321 0.262,2.092 0.262,3.936 z m 2.722,-1.676 c 0,0.922 -0.118,1.938 -0.262,2.259 0,0 0,0 -0.321,0 -0.322,0 -0.322,0 -0.322,0 -0.144,-0.321 -0.262,-1.337 -0.262,-2.259 0,-0.922 0.118,-1.939 0.262,-2.26 0,0 0,0 0.322,0 0.321,0 0.321,0 0.321,0 0.144,0.321 0.262,1.338 0.262,2.26 z m 3.207,1.676 c 0,1.844 -0.118,3.6149999 -0.262,3.9359999 0,0 0,0 -0.322,0 -0.322,0 -0.322,0 -0.322,0 -0.144,-0.321 -0.261,-2.0919999 -0.261,-3.9359999 0,-1.844 0.117,-3.615 0.261,-3.936 0,0 0,0 0.322,0 0.322,0 0.322,0 0.322,0 0.144,0.321 0.262,2.092 0.262,3.936 z m 3.012,-1.676 c 0,0.922 -0.117,1.938 -0.261,2.259 0,0 0,0 -0.322,0 -0.322,0 -0.322,0 -0.322,0 -0.144,-0.321 -0.261,-1.337 -0.261,-2.259 0,-0.922 0.117,-1.939 0.261,-2.26 0,0 0,0 0.322,0 0.322,0 0.322,0 0.322,0 0.144,0.321 0.261,1.338 0.261,2.26 z m 3.207,1.676 c 0,1.844 -0.117,3.6149999 -0.261,3.9359999 0,0 0,0 -0.322,0 -0.322,0 -0.322,0 -0.322,0 -0.144,-0.321 -0.261,-2.0919999 -0.261,-3.9359999 0,-1.844 0.117,-3.615 0.261,-3.936 0,0 0,0 0.322,0 0.322,0 0.322,0 0.322,0 0.144,0.321 0.261,2.092 0.261,3.936 z m 2.332,-1.676 c 0,0.922 -0.117,1.938 -0.261,2.259 0,0 0,0 -0.322,0 -0.322,0 -0.322,0 -0.322,0 -0.144,-0.321 -0.261,-1.337 -0.261,-2.259 0,-0.922 0.117,-1.939 0.261,-2.26 0,0 0,0 0.322,0 0.322,0 0.322,0 0.322,0 0.144,0.321 0.261,1.338 0.261,2.26 z m 3.207,1.676 c 0,1.844 -0.117,3.6149999 -0.261,3.9359999 0,0 0,0 -0.322,0 -0.322,0 -0.322,0 -0.322,0 -0.144,-0.321 -0.261,-2.0919999 -0.261,-3.9359999 0,-1.844 0.117,-3.615 0.261,-3.936 0,0 0,0 0.322,0 0.322,0 0.322,0 0.322,0 0.144,0.321 0.261,2.092 0.261,3.936 z m 2.818,-1.676 c 0,0.922 -0.117,1.938 -0.261,2.259 0,0 0,0 -0.322,0 -0.322,0 -0.322,0 -0.322,0 -0.144,-0.321 -0.261,-1.337 -0.261,-2.259 0,-0.922 0.117,-1.939 0.261,-2.26 0,0 0,0 0.322,0 0.322,0 0.322,0 0.322,0 0.144,0.321 0.261,1.338 0.261,2.26 z m 3.207,1.676 c 0,1.844 -0.117,3.6149999 -0.261,3.9359999 0,0 0,0 -0.322,0 -0.322,0 -0.322,0 -0.322,0 -0.144,-0.321 -0.261,-2.0919999 -0.261,-3.9359999 0,-1.844 0.117,-3.615 0.261,-3.936 0,0 0,0 0.322,0 0.322,0 0.322,0 0.322,0 0.144,0.321 0.261,2.092 0.261,3.936 z m 2.721,13.9179999 c 0,3.851 -0.117,7.263 -0.261,7.583 0,0 0,0 -0.322,0 -0.322,0 -0.322,0 -0.322,0 -0.144,-0.32 -0.261,-3.732 -0.261,-7.583 v -10.271 c 0,-3.8499999 0.117,-7.2619999 0.261,-7.5829999 0,0 0,0 0.322,0 0.322,0 0.322,0 0.322,0 0.144,0.321 0.261,3.733 0.261,7.5829999 v 10.271 z" />
</g><rect
     transform="matrix(0.99999094,0.0042569,0.04789431,0.99885241,0,0)"
     y="1.3145797"
     x="5.4488997"
     height="8.6791477"
     width="89.626022"
     id="rect2983"
     style="fill:#555555;fill-opacity:1" /><rect
     y="2.0306072"
     x="2.7307389"
     height="8.1643076"
     width="2.7777357"
     id="rect2985"
     style="fill:#555555;fill-opacity:1" /></g></svg>