<?xml version="1.0" encoding="UTF-8" standalone="no"?>
<!-- Generator: Adobe Illustrator 14.0.0, SVG Export Plug-In . SVG Version: 6.00 Build 43363)  -->

<svg
   xmlns:dc="http://purl.org/dc/elements/1.1/"
   xmlns:cc="http://creativecommons.org/ns#"
   xmlns:rdf="http://www.w3.org/1999/02/22-rdf-syntax-ns#"
   xmlns:svg="http://www.w3.org/2000/svg"
   xmlns="http://www.w3.org/2000/svg"
   xmlns:sodipodi="http://sodipodi.sourceforge.net/DTD/sodipodi-0.dtd"
   xmlns:inkscape="http://www.inkscape.org/namespaces/inkscape"
   version="1.0"
   id="Layer_1"
   x="0px"
   y="0px"
   width="37.207px"
   height="100px"
   viewBox="0 0 37.207 100"
   enable-background="new 0 0 37.207 100"
   xml:space="preserve"
   inkscape:version="0.48.2 r9819"
   sodipodi:docname="man_blue.svg"><metadata
   id="metadata11"><rdf:RDF><cc:Work
       rdf:about=""><dc:format>image/svg+xml</dc:format><dc:type
         rdf:resource="http://purl.org/dc/dcmitype/StillImage" /><dc:title></dc:title></cc:Work></rdf:RDF></metadata><defs
   id="defs9" /><sodipodi:namedview
   pagecolor="#ffffff"
   bordercolor="#666666"
   borderopacity="1"
   objecttolerance="10"
   gridtolerance="10"
   guidetolerance="10"
   inkscape:pageopacity="0"
   inkscape:pageshadow="2"
   inkscape:window-width="1680"
   inkscape:window-height="1028"
   id="namedview7"
   showgrid="false"
   inkscape:zoom="2.36"
   inkscape:cx="-54.277856"
   inkscape:cy="46.398305"
   inkscape:window-x="1672"
   inkscape:window-y="-8"
   inkscape:window-maximized="1"
   inkscape:current-layer="Layer_1" />
<circle
   cx="18.118"
   cy="8.159"
   r="8.159"
   id="circle3"
   style="fill:#555555;fill-opacity:1" />
<path
   d="M8.472,95.426c0,2.524,2.05,4.574,4.574,4.574c2.529,0,4.576-2.05,4.576-4.574l0.004-38.374h2.037L19.65,95.426  c0,2.524,2.048,4.574,4.574,4.574s4.573-2.05,4.573-4.574l0.02-66.158h2.006v24.38c0,4.905,6.398,4.905,6.384,0v-24.9  c0-5.418-3.184-10.728-9.523-10.728L9.396,18.012C3.619,18.012,0,22.722,0,28.599v25.05c0,4.869,6.433,4.869,6.433,0v-24.38h2.048  L8.472,95.426z"
   id="path5"
   style="fill:#555555;fill-opacity:1" />
</svg>